<mxfile host="Electron" modified="2024-04-16T19:43:34.656Z" agent="Mozilla/5.0 (Windows NT 10.0; Win64; x64) AppleWebKit/537.36 (KHTML, like Gecko) draw.io/24.2.5 Chrome/120.0.6099.109 Electron/28.1.0 Safari/537.36" etag="CGgvHtzPxVKUuYe7d8AN" version="24.2.5" type="device">
  <diagram id="kgpKYQtTHZ0yAKxKKP6v" name="Page-1">
    <mxGraphModel dx="989" dy="1710" grid="1" gridSize="10" guides="1" tooltips="1" connect="1" arrows="1" fold="1" page="1" pageScale="1" pageWidth="850" pageHeight="1100" math="0" shadow="0">
      <root>
        <mxCell id="0" />
        <mxCell id="1" parent="0" />
        <mxCell id="3nuBFxr9cyL0pnOWT2aG-1" value="Experimental process" style="shape=table;childLayout=tableLayout;startSize=30;collapsible=0;recursiveResize=0;expand=0;fillColor=none;fontStyle=1" parent="1" vertex="1">
          <mxGeometry x="10" y="-130" width="670" height="1078" as="geometry" />
        </mxCell>
        <mxCell id="3nuBFxr9cyL0pnOWT2aG-3" value="Generation" style="shape=tableRow;horizontal=0;swimlaneHead=0;swimlaneBody=0;top=0;left=0;bottom=0;right=0;fillColor=none;points=[[0,0.5],[1,0.5]];portConstraint=eastwest;startSize=40;collapsible=0;recursiveResize=0;expand=0;fontStyle=1;" parent="3nuBFxr9cyL0pnOWT2aG-1" vertex="1">
          <mxGeometry y="30" width="670" height="520" as="geometry" />
        </mxCell>
        <mxCell id="3nuBFxr9cyL0pnOWT2aG-4" value="Pipeline 1" style="swimlane;swimlaneHead=0;swimlaneBody=0;connectable=0;fillColor=none;startSize=30;collapsible=0;recursiveResize=0;expand=0;fontStyle=1;" parent="3nuBFxr9cyL0pnOWT2aG-3" vertex="1">
          <mxGeometry x="40" width="290" height="520" as="geometry">
            <mxRectangle width="290" height="520" as="alternateBounds" />
          </mxGeometry>
        </mxCell>
        <mxCell id="8_NXmCUL2MKXOfB-l1x--16" value="Input: Optimization problem description" style="ellipse;whiteSpace=wrap;html=1;" vertex="1" parent="3nuBFxr9cyL0pnOWT2aG-4">
          <mxGeometry x="67.5" y="40" width="155" height="60" as="geometry" />
        </mxCell>
        <mxCell id="8_NXmCUL2MKXOfB-l1x--17" value="Model: Generate the mathematical model by LLM" style="rounded=1;whiteSpace=wrap;html=1;fontSize=12;glass=0;strokeWidth=1;shadow=0;fillColor=#d5e8d4;strokeColor=#82b366;" vertex="1" parent="3nuBFxr9cyL0pnOWT2aG-4">
          <mxGeometry x="85.75" y="420" width="118.5" height="70" as="geometry" />
        </mxCell>
        <mxCell id="8_NXmCUL2MKXOfB-l1x--18" value="" style="rounded=0;html=1;jettySize=auto;orthogonalLoop=1;fontSize=11;endArrow=block;endFill=0;endSize=8;strokeWidth=1;shadow=0;labelBackgroundColor=none;edgeStyle=orthogonalEdgeStyle;entryX=0.5;entryY=0;entryDx=0;entryDy=0;exitX=0.5;exitY=1;exitDx=0;exitDy=0;" edge="1" parent="3nuBFxr9cyL0pnOWT2aG-4" source="8_NXmCUL2MKXOfB-l1x--16" target="8_NXmCUL2MKXOfB-l1x--17">
          <mxGeometry relative="1" as="geometry">
            <mxPoint x="-169.3800000000001" y="150" as="sourcePoint" />
            <mxPoint x="-169.3800000000001" y="170" as="targetPoint" />
          </mxGeometry>
        </mxCell>
        <mxCell id="3nuBFxr9cyL0pnOWT2aG-8" value="Pipeline 2" style="swimlane;swimlaneHead=0;swimlaneBody=0;connectable=0;fillColor=none;startSize=30;collapsible=0;recursiveResize=0;expand=0;fontStyle=1;rowspan=1;colspan=2;" parent="3nuBFxr9cyL0pnOWT2aG-3" vertex="1">
          <mxGeometry x="330" width="340" height="520" as="geometry">
            <mxRectangle width="210" height="520" as="alternateBounds" />
          </mxGeometry>
        </mxCell>
        <mxCell id="8_NXmCUL2MKXOfB-l1x--3" value="Input: Optimization problem description" style="ellipse;whiteSpace=wrap;html=1;" vertex="1" parent="3nuBFxr9cyL0pnOWT2aG-8">
          <mxGeometry x="92.5" y="40" width="155" height="60" as="geometry" />
        </mxCell>
        <mxCell id="8_NXmCUL2MKXOfB-l1x--4" value="" style="rounded=0;html=1;jettySize=auto;orthogonalLoop=1;fontSize=11;endArrow=block;endFill=0;endSize=8;strokeWidth=1;shadow=0;labelBackgroundColor=none;edgeStyle=orthogonalEdgeStyle;exitX=0.5;exitY=1;exitDx=0;exitDy=0;entryX=0.5;entryY=0;entryDx=0;entryDy=0;" edge="1" parent="3nuBFxr9cyL0pnOWT2aG-8" source="8_NXmCUL2MKXOfB-l1x--3" target="8_NXmCUL2MKXOfB-l1x--5">
          <mxGeometry relative="1" as="geometry">
            <mxPoint x="170" y="90" as="sourcePoint" />
            <mxPoint x="170" y="140" as="targetPoint" />
          </mxGeometry>
        </mxCell>
        <mxCell id="8_NXmCUL2MKXOfB-l1x--5" value="Extract the decision variables by LLM" style="rounded=1;whiteSpace=wrap;html=1;fontSize=12;glass=0;strokeWidth=1;shadow=0;fillColor=#d5e8d4;strokeColor=#82b366;" vertex="1" parent="3nuBFxr9cyL0pnOWT2aG-8">
          <mxGeometry x="110" y="120" width="120" height="40" as="geometry" />
        </mxCell>
        <mxCell id="8_NXmCUL2MKXOfB-l1x--6" value="Add the response to the prompt" style="rounded=1;whiteSpace=wrap;html=1;fontSize=12;glass=0;strokeWidth=1;shadow=0;fillColor=#dae8fc;strokeColor=#6c8ebf;" vertex="1" parent="3nuBFxr9cyL0pnOWT2aG-8">
          <mxGeometry x="110" y="180" width="120" height="40" as="geometry" />
        </mxCell>
        <mxCell id="8_NXmCUL2MKXOfB-l1x--7" value="" style="rounded=0;html=1;jettySize=auto;orthogonalLoop=1;fontSize=11;endArrow=block;endFill=0;endSize=8;strokeWidth=1;shadow=0;labelBackgroundColor=none;edgeStyle=orthogonalEdgeStyle;entryX=0.5;entryY=0;entryDx=0;entryDy=0;exitX=0.5;exitY=1;exitDx=0;exitDy=0;" edge="1" parent="3nuBFxr9cyL0pnOWT2aG-8" source="8_NXmCUL2MKXOfB-l1x--5" target="8_NXmCUL2MKXOfB-l1x--6">
          <mxGeometry relative="1" as="geometry">
            <mxPoint x="170" y="170" as="sourcePoint" />
            <mxPoint x="180" y="140" as="targetPoint" />
          </mxGeometry>
        </mxCell>
        <mxCell id="8_NXmCUL2MKXOfB-l1x--8" value="Generate the objective function by LLM" style="rounded=1;whiteSpace=wrap;html=1;fontSize=12;glass=0;strokeWidth=1;shadow=0;fillColor=#d5e8d4;strokeColor=#82b366;" vertex="1" parent="3nuBFxr9cyL0pnOWT2aG-8">
          <mxGeometry x="106.56" y="240" width="126.88" height="40" as="geometry" />
        </mxCell>
        <mxCell id="8_NXmCUL2MKXOfB-l1x--9" value="Add the response to the prompt" style="rounded=1;whiteSpace=wrap;html=1;fontSize=12;glass=0;strokeWidth=1;shadow=0;fillColor=#dae8fc;strokeColor=#6c8ebf;" vertex="1" parent="3nuBFxr9cyL0pnOWT2aG-8">
          <mxGeometry x="110" y="300" width="120" height="40" as="geometry" />
        </mxCell>
        <mxCell id="8_NXmCUL2MKXOfB-l1x--10" value="" style="rounded=0;html=1;jettySize=auto;orthogonalLoop=1;fontSize=11;endArrow=block;endFill=0;endSize=8;strokeWidth=1;shadow=0;labelBackgroundColor=none;edgeStyle=orthogonalEdgeStyle;entryX=0.5;entryY=0;entryDx=0;entryDy=0;exitX=0.5;exitY=1;exitDx=0;exitDy=0;" edge="1" parent="3nuBFxr9cyL0pnOWT2aG-8" source="8_NXmCUL2MKXOfB-l1x--8" target="8_NXmCUL2MKXOfB-l1x--9">
          <mxGeometry relative="1" as="geometry">
            <mxPoint x="100" y="230" as="sourcePoint" />
            <mxPoint x="110" y="200" as="targetPoint" />
          </mxGeometry>
        </mxCell>
        <mxCell id="8_NXmCUL2MKXOfB-l1x--11" value="Generate the constraints by LLM" style="rounded=1;whiteSpace=wrap;html=1;fontSize=12;glass=0;strokeWidth=1;shadow=0;fillColor=#d5e8d4;strokeColor=#82b366;" vertex="1" parent="3nuBFxr9cyL0pnOWT2aG-8">
          <mxGeometry x="110" y="360" width="120" height="40" as="geometry" />
        </mxCell>
        <mxCell id="8_NXmCUL2MKXOfB-l1x--12" value="Model: &lt;br&gt;Combine the responses to get text with the mathematical model and no problem description" style="rounded=1;whiteSpace=wrap;html=1;fontSize=12;glass=0;strokeWidth=1;shadow=0;fillColor=#dae8fc;strokeColor=#6c8ebf;" vertex="1" parent="3nuBFxr9cyL0pnOWT2aG-8">
          <mxGeometry x="95" y="420" width="150" height="80" as="geometry" />
        </mxCell>
        <mxCell id="8_NXmCUL2MKXOfB-l1x--13" value="" style="rounded=0;html=1;jettySize=auto;orthogonalLoop=1;fontSize=11;endArrow=block;endFill=0;endSize=8;strokeWidth=1;shadow=0;labelBackgroundColor=none;edgeStyle=orthogonalEdgeStyle;entryX=0.5;entryY=0;entryDx=0;entryDy=0;exitX=0.5;exitY=1;exitDx=0;exitDy=0;" edge="1" parent="3nuBFxr9cyL0pnOWT2aG-8" source="8_NXmCUL2MKXOfB-l1x--11" target="8_NXmCUL2MKXOfB-l1x--12">
          <mxGeometry relative="1" as="geometry">
            <mxPoint x="30" y="290" as="sourcePoint" />
            <mxPoint x="40" y="260" as="targetPoint" />
          </mxGeometry>
        </mxCell>
        <mxCell id="8_NXmCUL2MKXOfB-l1x--14" value="" style="rounded=0;html=1;jettySize=auto;orthogonalLoop=1;fontSize=11;endArrow=block;endFill=0;endSize=8;strokeWidth=1;shadow=0;labelBackgroundColor=none;edgeStyle=orthogonalEdgeStyle;exitX=0.5;exitY=1;exitDx=0;exitDy=0;entryX=0.5;entryY=0;entryDx=0;entryDy=0;" edge="1" parent="3nuBFxr9cyL0pnOWT2aG-8" source="8_NXmCUL2MKXOfB-l1x--6" target="8_NXmCUL2MKXOfB-l1x--8">
          <mxGeometry relative="1" as="geometry">
            <mxPoint x="170" y="290" as="sourcePoint" />
            <mxPoint x="160" y="240" as="targetPoint" />
          </mxGeometry>
        </mxCell>
        <mxCell id="8_NXmCUL2MKXOfB-l1x--15" value="" style="rounded=0;html=1;jettySize=auto;orthogonalLoop=1;fontSize=11;endArrow=block;endFill=0;endSize=8;strokeWidth=1;shadow=0;labelBackgroundColor=none;edgeStyle=orthogonalEdgeStyle;exitX=0.5;exitY=1;exitDx=0;exitDy=0;entryX=0.5;entryY=0;entryDx=0;entryDy=0;" edge="1" parent="3nuBFxr9cyL0pnOWT2aG-8" source="8_NXmCUL2MKXOfB-l1x--9" target="8_NXmCUL2MKXOfB-l1x--11">
          <mxGeometry relative="1" as="geometry">
            <mxPoint x="170" y="410" as="sourcePoint" />
            <mxPoint x="160" y="360" as="targetPoint" />
          </mxGeometry>
        </mxCell>
        <mxCell id="3nuBFxr9cyL0pnOWT2aG-11" value="Feel perky" style="swimlane;swimlaneHead=0;swimlaneBody=0;connectable=0;fillColor=none;startSize=30;collapsible=0;recursiveResize=0;expand=0;fontStyle=1;" parent="3nuBFxr9cyL0pnOWT2aG-3" vertex="1" visible="0">
          <mxGeometry x="540" width="130" height="520" as="geometry">
            <mxRectangle width="130" height="520" as="alternateBounds" />
          </mxGeometry>
        </mxCell>
        <mxCell id="3nuBFxr9cyL0pnOWT2aG-15" value="Evaluation" style="shape=tableRow;horizontal=0;swimlaneHead=0;swimlaneBody=0;top=0;left=0;bottom=0;right=0;fillColor=none;points=[[0,0.5],[1,0.5]];portConstraint=eastwest;startSize=40;collapsible=0;recursiveResize=0;expand=0;fontStyle=1;" parent="3nuBFxr9cyL0pnOWT2aG-1" vertex="1">
          <mxGeometry y="550" width="670" height="528" as="geometry" />
        </mxCell>
        <mxCell id="3nuBFxr9cyL0pnOWT2aG-16" value="" style="swimlane;swimlaneHead=0;swimlaneBody=0;connectable=0;fillColor=none;startSize=0;collapsible=0;recursiveResize=0;expand=0;fontStyle=1;rowspan=1;colspan=3;" parent="3nuBFxr9cyL0pnOWT2aG-15" vertex="1">
          <mxGeometry x="40" width="630" height="528" as="geometry">
            <mxRectangle width="290" height="528" as="alternateBounds" />
          </mxGeometry>
        </mxCell>
        <mxCell id="8_NXmCUL2MKXOfB-l1x--20" value="Is the Model correct and does the Code exactly represent it?" style="rhombus;whiteSpace=wrap;html=1;fillColor=#fff2cc;strokeColor=#d6b656;" vertex="1" parent="3nuBFxr9cyL0pnOWT2aG-16">
          <mxGeometry x="8.13" y="130" width="190" height="115" as="geometry" />
        </mxCell>
        <mxCell id="8_NXmCUL2MKXOfB-l1x--22" value="" style="rounded=0;html=1;jettySize=auto;orthogonalLoop=1;fontSize=11;endArrow=block;endFill=0;endSize=8;strokeWidth=1;shadow=0;labelBackgroundColor=none;edgeStyle=orthogonalEdgeStyle;entryX=0.5;entryY=0;entryDx=0;entryDy=0;exitX=0.5;exitY=1;exitDx=0;exitDy=0;" edge="1" parent="3nuBFxr9cyL0pnOWT2aG-16" source="8_NXmCUL2MKXOfB-l1x--21" target="8_NXmCUL2MKXOfB-l1x--20">
          <mxGeometry relative="1" as="geometry">
            <mxPoint x="348.37" y="105" as="sourcePoint" />
            <mxPoint x="348.37" y="125" as="targetPoint" />
          </mxGeometry>
        </mxCell>
        <mxCell id="8_NXmCUL2MKXOfB-l1x--24" value="" style="rounded=0;html=1;jettySize=auto;orthogonalLoop=1;fontSize=11;endArrow=block;endFill=0;endSize=8;strokeWidth=1;shadow=0;labelBackgroundColor=none;edgeStyle=orthogonalEdgeStyle;entryX=0.49;entryY=-0.005;entryDx=0;entryDy=0;exitX=1;exitY=0.5;exitDx=0;exitDy=0;entryPerimeter=0;" edge="1" parent="3nuBFxr9cyL0pnOWT2aG-16" source="8_NXmCUL2MKXOfB-l1x--20" target="8_NXmCUL2MKXOfB-l1x--30">
          <mxGeometry relative="1" as="geometry">
            <mxPoint x="188.12" y="195" as="sourcePoint" />
            <mxPoint x="261.25" y="205" as="targetPoint" />
            <Array as="points">
              <mxPoint x="260" y="188" />
            </Array>
          </mxGeometry>
        </mxCell>
        <mxCell id="8_NXmCUL2MKXOfB-l1x--25" value="No" style="edgeLabel;html=1;align=center;verticalAlign=middle;resizable=0;points=[];" vertex="1" connectable="0" parent="8_NXmCUL2MKXOfB-l1x--24">
          <mxGeometry x="-0.0089" y="1" relative="1" as="geometry">
            <mxPoint x="-11.489999999999998" y="0.98" as="offset" />
          </mxGeometry>
        </mxCell>
        <mxCell id="8_NXmCUL2MKXOfB-l1x--29" value="Does the Code exactly represent the Model?" style="rhombus;whiteSpace=wrap;html=1;fillColor=#fff2cc;strokeColor=#d6b656;" vertex="1" parent="3nuBFxr9cyL0pnOWT2aG-16">
          <mxGeometry x="344" y="325" width="150" height="80" as="geometry" />
        </mxCell>
        <mxCell id="8_NXmCUL2MKXOfB-l1x--30" value="Try running the Code" style="rounded=1;whiteSpace=wrap;html=1;fontSize=12;glass=0;strokeWidth=1;shadow=0;fillColor=#dae8fc;strokeColor=#6c8ebf;" vertex="1" parent="3nuBFxr9cyL0pnOWT2aG-16">
          <mxGeometry x="201.25" y="205" width="120" height="40" as="geometry" />
        </mxCell>
        <mxCell id="8_NXmCUL2MKXOfB-l1x--31" value="Is the Model correct?" style="rhombus;whiteSpace=wrap;html=1;fillColor=#fff2cc;strokeColor=#d6b656;" vertex="1" parent="3nuBFxr9cyL0pnOWT2aG-16">
          <mxGeometry x="186.25" y="265" width="150" height="80" as="geometry" />
        </mxCell>
        <mxCell id="8_NXmCUL2MKXOfB-l1x--32" value="Write code that exactly represents the generated Model&amp;nbsp; and run it" style="rounded=1;whiteSpace=wrap;html=1;fontSize=12;glass=0;strokeWidth=1;shadow=0;fillColor=#fff2cc;strokeColor=#d6b656;" vertex="1" parent="3nuBFxr9cyL0pnOWT2aG-16">
          <mxGeometry x="475" y="388" width="120" height="70" as="geometry" />
        </mxCell>
        <mxCell id="8_NXmCUL2MKXOfB-l1x--33" value="" style="rounded=0;html=1;jettySize=auto;orthogonalLoop=1;fontSize=11;endArrow=block;endFill=0;endSize=8;strokeWidth=1;shadow=0;labelBackgroundColor=none;edgeStyle=orthogonalEdgeStyle;entryX=0.5;entryY=0;entryDx=0;entryDy=0;exitX=0.5;exitY=1;exitDx=0;exitDy=0;" edge="1" parent="3nuBFxr9cyL0pnOWT2aG-16" source="8_NXmCUL2MKXOfB-l1x--30" target="8_NXmCUL2MKXOfB-l1x--31">
          <mxGeometry relative="1" as="geometry">
            <mxPoint x="260" y="248" as="sourcePoint" />
            <mxPoint x="259.875" y="263" as="targetPoint" />
            <Array as="points" />
          </mxGeometry>
        </mxCell>
        <mxCell id="8_NXmCUL2MKXOfB-l1x--34" value="" style="rounded=0;html=1;jettySize=auto;orthogonalLoop=1;fontSize=11;endArrow=block;endFill=0;endSize=8;strokeWidth=1;shadow=0;labelBackgroundColor=none;edgeStyle=orthogonalEdgeStyle;entryX=0.5;entryY=0;entryDx=0;entryDy=0;exitX=1;exitY=0.5;exitDx=0;exitDy=0;" edge="1" parent="3nuBFxr9cyL0pnOWT2aG-16" source="8_NXmCUL2MKXOfB-l1x--31" target="8_NXmCUL2MKXOfB-l1x--29">
          <mxGeometry relative="1" as="geometry">
            <mxPoint x="344" y="302.5" as="sourcePoint" />
            <mxPoint x="417.75" y="325" as="targetPoint" />
            <Array as="points">
              <mxPoint x="419" y="305" />
            </Array>
          </mxGeometry>
        </mxCell>
        <mxCell id="8_NXmCUL2MKXOfB-l1x--35" value="No" style="edgeLabel;html=1;align=center;verticalAlign=middle;resizable=0;points=[];" vertex="1" connectable="0" parent="8_NXmCUL2MKXOfB-l1x--34">
          <mxGeometry x="-0.0089" y="1" relative="1" as="geometry">
            <mxPoint x="-24.58" y="1" as="offset" />
          </mxGeometry>
        </mxCell>
        <mxCell id="8_NXmCUL2MKXOfB-l1x--37" value="" style="rounded=0;html=1;jettySize=auto;orthogonalLoop=1;fontSize=11;endArrow=block;endFill=0;endSize=8;strokeWidth=1;shadow=0;labelBackgroundColor=none;edgeStyle=orthogonalEdgeStyle;exitX=1;exitY=0.5;exitDx=0;exitDy=0;entryX=0.501;entryY=0.016;entryDx=0;entryDy=0;entryPerimeter=0;" edge="1" parent="3nuBFxr9cyL0pnOWT2aG-16" source="8_NXmCUL2MKXOfB-l1x--29" target="8_NXmCUL2MKXOfB-l1x--32">
          <mxGeometry relative="1" as="geometry">
            <mxPoint x="495" y="365" as="sourcePoint" />
            <mxPoint x="535" y="425" as="targetPoint" />
            <Array as="points">
              <mxPoint x="535" y="365" />
            </Array>
          </mxGeometry>
        </mxCell>
        <mxCell id="8_NXmCUL2MKXOfB-l1x--38" value="No" style="edgeLabel;html=1;align=center;verticalAlign=middle;resizable=0;points=[];" vertex="1" connectable="0" parent="8_NXmCUL2MKXOfB-l1x--37">
          <mxGeometry x="-0.0089" y="1" relative="1" as="geometry">
            <mxPoint x="-16" y="1" as="offset" />
          </mxGeometry>
        </mxCell>
        <mxCell id="8_NXmCUL2MKXOfB-l1x--21" value="Code: &lt;br&gt;With the Model as prompt, ask the LLM to write code for the solver.&amp;nbsp;" style="rounded=1;whiteSpace=wrap;html=1;fontSize=12;glass=0;strokeWidth=1;shadow=0;fillColor=#d5e8d4;strokeColor=#82b366;" vertex="1" parent="3nuBFxr9cyL0pnOWT2aG-16">
          <mxGeometry x="38.13" y="30" width="130" height="85" as="geometry" />
        </mxCell>
        <mxCell id="8_NXmCUL2MKXOfB-l1x--23" value="Save results" style="rounded=1;whiteSpace=wrap;html=1;" vertex="1" parent="3nuBFxr9cyL0pnOWT2aG-16">
          <mxGeometry x="480" y="478" width="115" height="40" as="geometry" />
        </mxCell>
        <mxCell id="8_NXmCUL2MKXOfB-l1x--26" value="" style="rounded=0;html=1;jettySize=auto;orthogonalLoop=1;fontSize=11;endArrow=block;endFill=0;endSize=8;strokeWidth=1;shadow=0;labelBackgroundColor=none;edgeStyle=orthogonalEdgeStyle;exitX=0.5;exitY=1;exitDx=0;exitDy=0;" edge="1" parent="3nuBFxr9cyL0pnOWT2aG-16" source="8_NXmCUL2MKXOfB-l1x--20" target="8_NXmCUL2MKXOfB-l1x--23">
          <mxGeometry relative="1" as="geometry">
            <mxPoint x="103.18000000000012" y="166.75" as="sourcePoint" />
            <mxPoint x="450" y="493" as="targetPoint" />
            <Array as="points">
              <mxPoint x="103" y="508" />
            </Array>
          </mxGeometry>
        </mxCell>
        <mxCell id="8_NXmCUL2MKXOfB-l1x--27" value="Yes" style="edgeLabel;html=1;align=center;verticalAlign=middle;resizable=0;points=[];" vertex="1" connectable="0" parent="8_NXmCUL2MKXOfB-l1x--26">
          <mxGeometry x="-0.0089" y="1" relative="1" as="geometry">
            <mxPoint x="-57" y="-244" as="offset" />
          </mxGeometry>
        </mxCell>
        <mxCell id="8_NXmCUL2MKXOfB-l1x--28" value="" style="rounded=0;html=1;jettySize=auto;orthogonalLoop=1;fontSize=11;endArrow=block;endFill=0;endSize=8;strokeWidth=1;shadow=0;labelBackgroundColor=none;edgeStyle=orthogonalEdgeStyle;exitX=0.5;exitY=1;exitDx=0;exitDy=0;entryX=0;entryY=0.5;entryDx=0;entryDy=0;" edge="1" parent="3nuBFxr9cyL0pnOWT2aG-16" source="8_NXmCUL2MKXOfB-l1x--31" target="8_NXmCUL2MKXOfB-l1x--23">
          <mxGeometry relative="1" as="geometry">
            <mxPoint x="230" y="356" as="sourcePoint" />
            <mxPoint x="475" y="494.00000000000045" as="targetPoint" />
            <Array as="points">
              <mxPoint x="261" y="498" />
            </Array>
          </mxGeometry>
        </mxCell>
        <mxCell id="8_NXmCUL2MKXOfB-l1x--36" value="" style="rounded=0;html=1;jettySize=auto;orthogonalLoop=1;fontSize=11;endArrow=block;endFill=0;endSize=8;strokeWidth=1;shadow=0;labelBackgroundColor=none;edgeStyle=orthogonalEdgeStyle;entryX=0;entryY=0.25;entryDx=0;entryDy=0;exitX=0.5;exitY=1;exitDx=0;exitDy=0;" edge="1" parent="3nuBFxr9cyL0pnOWT2aG-16" source="8_NXmCUL2MKXOfB-l1x--29" target="8_NXmCUL2MKXOfB-l1x--23">
          <mxGeometry relative="1" as="geometry">
            <mxPoint x="195" y="233" as="sourcePoint" />
            <mxPoint x="490" y="483" as="targetPoint" />
            <Array as="points">
              <mxPoint x="419" y="488" />
            </Array>
          </mxGeometry>
        </mxCell>
        <mxCell id="8_NXmCUL2MKXOfB-l1x--46" value="" style="rounded=0;html=1;jettySize=auto;orthogonalLoop=1;fontSize=11;endArrow=block;endFill=0;endSize=8;strokeWidth=1;shadow=0;labelBackgroundColor=none;edgeStyle=orthogonalEdgeStyle;entryX=0.5;entryY=0;entryDx=0;entryDy=0;exitX=0.527;exitY=1.003;exitDx=0;exitDy=0;exitPerimeter=0;" edge="1" parent="3nuBFxr9cyL0pnOWT2aG-16" source="8_NXmCUL2MKXOfB-l1x--32">
          <mxGeometry relative="1" as="geometry">
            <mxPoint x="537.0699999999999" y="463" as="sourcePoint" />
            <mxPoint x="537.0699999999999" y="478" as="targetPoint" />
            <Array as="points">
              <mxPoint x="537" y="458" />
            </Array>
          </mxGeometry>
        </mxCell>
        <mxCell id="8_NXmCUL2MKXOfB-l1x--40" value="Yes" style="edgeLabel;html=1;align=center;verticalAlign=middle;resizable=0;points=[];" vertex="1" connectable="0" parent="3nuBFxr9cyL0pnOWT2aG-16">
          <mxGeometry x="259.99999999999983" y="365" as="geometry">
            <mxPoint as="offset" />
          </mxGeometry>
        </mxCell>
        <mxCell id="8_NXmCUL2MKXOfB-l1x--39" value="Yes" style="edgeLabel;html=1;align=center;verticalAlign=middle;resizable=0;points=[];" vertex="1" connectable="0" parent="3nuBFxr9cyL0pnOWT2aG-16">
          <mxGeometry x="418.99999999999983" y="425" as="geometry" />
        </mxCell>
        <mxCell id="3nuBFxr9cyL0pnOWT2aG-18" value="" style="swimlane;swimlaneHead=0;swimlaneBody=0;connectable=0;fillColor=none;startSize=0;collapsible=0;recursiveResize=0;expand=0;fontStyle=1;" parent="3nuBFxr9cyL0pnOWT2aG-15" vertex="1" visible="0">
          <mxGeometry x="330" width="210" height="528" as="geometry">
            <mxRectangle width="210" height="528" as="alternateBounds" />
          </mxGeometry>
        </mxCell>
        <mxCell id="3nuBFxr9cyL0pnOWT2aG-23" value="" style="swimlane;swimlaneHead=0;swimlaneBody=0;connectable=0;fillColor=none;startSize=0;collapsible=0;recursiveResize=0;expand=0;fontStyle=1;" parent="3nuBFxr9cyL0pnOWT2aG-15" vertex="1" visible="0">
          <mxGeometry x="540" width="130" height="528" as="geometry">
            <mxRectangle width="130" height="528" as="alternateBounds" />
          </mxGeometry>
        </mxCell>
        <mxCell id="8_NXmCUL2MKXOfB-l1x--42" value="" style="rounded=0;html=1;jettySize=auto;orthogonalLoop=1;fontSize=11;endArrow=block;endFill=0;endSize=8;strokeWidth=1;shadow=0;labelBackgroundColor=none;edgeStyle=orthogonalEdgeStyle;exitX=0.5;exitY=1;exitDx=0;exitDy=0;" edge="1" parent="3nuBFxr9cyL0pnOWT2aG-1" source="8_NXmCUL2MKXOfB-l1x--17" target="8_NXmCUL2MKXOfB-l1x--21">
          <mxGeometry relative="1" as="geometry">
            <mxPoint x="195" y="350" as="sourcePoint" />
            <mxPoint x="150" y="590" as="targetPoint" />
            <Array as="points">
              <mxPoint x="185" y="530" />
              <mxPoint x="143" y="530" />
            </Array>
          </mxGeometry>
        </mxCell>
        <mxCell id="8_NXmCUL2MKXOfB-l1x--45" value="" style="rounded=0;html=1;jettySize=auto;orthogonalLoop=1;fontSize=11;endArrow=block;endFill=0;endSize=8;strokeWidth=1;shadow=0;labelBackgroundColor=none;edgeStyle=orthogonalEdgeStyle;exitX=0.5;exitY=1;exitDx=0;exitDy=0;entryX=0.75;entryY=0;entryDx=0;entryDy=0;" edge="1" parent="3nuBFxr9cyL0pnOWT2aG-1" source="8_NXmCUL2MKXOfB-l1x--12" target="8_NXmCUL2MKXOfB-l1x--21">
          <mxGeometry relative="1" as="geometry">
            <mxPoint x="195" y="380" as="sourcePoint" />
            <mxPoint x="153" y="682" as="targetPoint" />
            <Array as="points">
              <mxPoint x="500" y="560" />
              <mxPoint x="176" y="560" />
            </Array>
          </mxGeometry>
        </mxCell>
        <mxCell id="8_NXmCUL2MKXOfB-l1x--48" value="Legend" style="shape=table;startSize=30;container=1;collapsible=0;childLayout=tableLayout;strokeColor=default;fontSize=16;" vertex="1" parent="1">
          <mxGeometry x="10" y="960" width="670" height="70" as="geometry" />
        </mxCell>
        <mxCell id="8_NXmCUL2MKXOfB-l1x--49" value="" style="shape=tableRow;horizontal=0;startSize=0;swimlaneHead=0;swimlaneBody=0;strokeColor=inherit;top=0;left=0;bottom=0;right=0;collapsible=0;dropTarget=0;fillColor=none;points=[[0,0.5],[1,0.5]];portConstraint=eastwest;fontSize=16;" vertex="1" parent="8_NXmCUL2MKXOfB-l1x--48">
          <mxGeometry y="30" width="670" height="40" as="geometry" />
        </mxCell>
        <mxCell id="8_NXmCUL2MKXOfB-l1x--50" value="Done by LLM" style="shape=partialRectangle;html=1;whiteSpace=wrap;connectable=0;strokeColor=inherit;overflow=hidden;fillColor=none;top=0;left=0;bottom=0;right=0;pointerEvents=1;fontSize=16;" vertex="1" parent="8_NXmCUL2MKXOfB-l1x--49">
          <mxGeometry width="220" height="40" as="geometry">
            <mxRectangle width="220" height="40" as="alternateBounds" />
          </mxGeometry>
        </mxCell>
        <mxCell id="8_NXmCUL2MKXOfB-l1x--51" value="Done by code" style="shape=partialRectangle;html=1;whiteSpace=wrap;connectable=0;strokeColor=inherit;overflow=hidden;fillColor=none;top=0;left=0;bottom=0;right=0;pointerEvents=1;fontSize=16;" vertex="1" parent="8_NXmCUL2MKXOfB-l1x--49">
          <mxGeometry x="220" width="230" height="40" as="geometry">
            <mxRectangle width="230" height="40" as="alternateBounds" />
          </mxGeometry>
        </mxCell>
        <mxCell id="8_NXmCUL2MKXOfB-l1x--52" value="Done manually" style="shape=partialRectangle;html=1;whiteSpace=wrap;connectable=0;strokeColor=inherit;overflow=hidden;fillColor=none;top=0;left=0;bottom=0;right=0;pointerEvents=1;fontSize=16;" vertex="1" parent="8_NXmCUL2MKXOfB-l1x--49">
          <mxGeometry x="450" width="220" height="40" as="geometry">
            <mxRectangle width="220" height="40" as="alternateBounds" />
          </mxGeometry>
        </mxCell>
        <mxCell id="8_NXmCUL2MKXOfB-l1x--61" value="" style="rounded=0;whiteSpace=wrap;html=1;fillColor=#d5e8d4;strokeColor=#82b366;" vertex="1" parent="1">
          <mxGeometry x="20" y="1000" width="20" height="20" as="geometry" />
        </mxCell>
        <mxCell id="8_NXmCUL2MKXOfB-l1x--62" value="" style="rounded=0;whiteSpace=wrap;html=1;fillColor=#dae8fc;strokeColor=#6c8ebf;" vertex="1" parent="1">
          <mxGeometry x="240" y="1000" width="20" height="20" as="geometry" />
        </mxCell>
        <mxCell id="8_NXmCUL2MKXOfB-l1x--63" value="" style="rounded=0;whiteSpace=wrap;html=1;fillColor=#fff2cc;strokeColor=#d6b656;" vertex="1" parent="1">
          <mxGeometry x="470" y="1000" width="20" height="20" as="geometry" />
        </mxCell>
      </root>
    </mxGraphModel>
  </diagram>
</mxfile>
